<svg xmlns="http://www.w3.org/2000/svg" xmlns:xlink="http://www.w3.org/1999/xlink" version="1.1" id="v-2" width="100%" height="100%" viewBox="180.00000484812026 430.0000474188065 730.0000610351562 580"><g id="v-3" class="viewport" transform="" style="cursor: grabbing; font-family: Arial; user-select: none;"><g id="j_8" model-id="5c7d6d8c-e860-4bd8-aea5-e8797b1621a3" class="element basic Actor joint-theme-default" transform="translate(180,430)" style="cursor: move; font-family: Arial; user-select: none;"><g class="scalable" id="v-72" transform="scale(6.083333333333333,4.833333333333333)" style="cursor: move; font-family: Arial; user-select: none; vector-effect: non-scaling-stroke;"><circle class="outer" id="v-76" r="60" cx="60" cy="60" fill="#CCFFCC" stroke="black" stroke-dasharray="5 2" stroke-width="1" style="cursor: move; font-family: Arial; user-select: none; vector-effect: non-scaling-stroke;"/></g><circle class="label" id="v-73" r="30" cx="182.5" cy="58.114564475547354" fill="#FFFFA4" stroke="#000000" style="cursor: move; font-family: Arial; user-select: none; vector-effect: non-scaling-stroke;"/><path class="line" id="v-74" style="cursor: move; font-family: Arial; user-select: none; vector-effect: non-scaling-stroke;"/><text class="name" id="v-75" y="0.8em" display="null" xml:space="preserve" fill="black" font-size="13" transform="translate(158.7421875,50.89581489562988)" style="cursor: move; font-family: Arial; perspective-origin: 25.1562px 0px; user-select: none; vector-effect: non-scaling-stroke;"><tspan dy="0em" x="0" id="v-3427" class="v-line" style="cursor: move; font-family: Arial; user-select: none; vector-effect: non-scaling-stroke;">Usuario</tspan></text></g><g id="j_13" model-id="d740ce1d-c29c-4c89-9eee-f3e34b57a101" class="element basic Goal joint-theme-default" transform="translate(460,490)" style="cursor: move; font-family: Arial; user-select: none;"><g class="rotatable" id="v-495" transform="rotate(0,90,25)" style="cursor: move; font-family: Arial; user-select: none; vector-effect: non-scaling-stroke;"><g class="scalable" id="v-496" transform="scale(1.8,0.8333333333333334)" style="cursor: move; font-family: Arial; user-select: none; vector-effect: non-scaling-stroke;"><rect class="outer" id="v-497" rx="20" ry="20" stroke="black" fill="#FFCC66" width="100" height="60" stroke-width="1" stroke-dasharray="" style="cursor: move; font-family: Arial; user-select: none; vector-effect: non-scaling-stroke;"/></g><path class="satvalue" id="v-498" stroke="#FFFF00" stroke-width="4" value="none" transform="translate(144,37.5)" style="cursor: move; font-family: Arial; user-select: none; vector-effect: non-scaling-stroke;"/><text class="funcvalue" id="v-501" y="0.8em" display="null" xml:space="preserve" fill="black" font-size="16" transform="translate(14.4,37.5)" style="cursor: move; font-family: Arial; perspective-origin: 2.46528px 0px; user-select: none; vector-effect: non-scaling-stroke;"><tspan dy="0em" x="0" id="v-3828" class="v-line" style="cursor: move; font-family: Arial; user-select: none; vector-effect: non-scaling-stroke;"> </tspan></text><text class="name" id="v-499" y="0.8em" display="null" xml:space="preserve" fill="black" font-size="13" transform="translate(4.8750152587890625,11.281265258789062)" style="cursor: move; font-family: Arial; perspective-origin: 93.3507px 0px; user-select: none; vector-effect: non-scaling-stroke;"><tspan dy="0em" x="0" id="v-3826" class="v-line" style="cursor: move; font-family: Arial; user-select: none; vector-effect: non-scaling-stroke;">O catalogo deve ter titulos</tspan><tspan dy="1em" x="0" id="v-3827" class="v-line" style="cursor: move; font-family: Arial; user-select: none; vector-effect: non-scaling-stroke;"> interessantes para o usuario</tspan></text></g></g><g id="j_27" model-id="b5c8c259-1c4e-4c95-b88e-fa21fbf67a4c" class="element basic Task joint-theme-default" transform="translate(370.00006103515625,760.0001220703125)" style="cursor: move; font-family: Arial; user-select: none;"><g class="rotatable" id="v-1032" transform="rotate(0,70,35)" style="cursor: move; font-family: Arial; user-select: none; vector-effect: non-scaling-stroke;"><g class="scalable" id="v-1033" transform="scale(1.4,1.1666666666666667)" style="cursor: move; font-family: Arial; user-select: none; vector-effect: non-scaling-stroke;"><path class="outer" id="v-1034" d="M 0 30 L 20 0 L 80 0 L 100 30 L 80 60 L 20 60 z" fill="#92E3B1" stroke="black" stroke-width="1" width="100" height="60" stroke-dasharray="" style="cursor: move; font-family: Arial; user-select: none; vector-effect: non-scaling-stroke;"/></g><path class="satvalue" id="v-1035" stroke="#FFFF00" stroke-width="4" value="none" transform="translate(105,52.5)" style="cursor: move; font-family: Arial; user-select: none; vector-effect: non-scaling-stroke;"/><text class="funcvalue" id="v-1036" y="0.8em" display="null" xml:space="preserve" fill="black" font-size="16" transform="translate(28,52.5)" style="cursor: move; font-family: Arial; perspective-origin: 2.46528px 0px; user-select: none; vector-effect: non-scaling-stroke;"><tspan dy="0em" x="0" id="v-3832" class="v-line" style="cursor: move; font-family: Arial; user-select: none; vector-effect: non-scaling-stroke;"> </tspan></text><text class="name" id="v-1038" y="0.8em" display="null" xml:space="preserve" fill="black" font-size="13" transform="translate(9.5390625,21.28125)" style="cursor: move; font-family: Arial; perspective-origin: 65.9375px 0px; user-select: none; vector-effect: non-scaling-stroke;"><tspan dy="0em" x="0" id="v-3833" class="v-line" style="cursor: move; font-family: Arial; user-select: none; vector-effect: non-scaling-stroke;">Buscar novos titulos </tspan><tspan dy="1em" x="0" id="v-3834" class="v-line" style="cursor: move; font-family: Arial; user-select: none; vector-effect: non-scaling-stroke;">de seu interesse</tspan></text></g></g><g id="j_29" model-id="2453706e-c152-40eb-9153-21f632adb9bf" class="element basic Task joint-theme-default" transform="translate(210.00003051757812,750.0001220703125)" style="cursor: move; font-family: Arial; user-select: none;"><g class="rotatable" id="v-1119" transform="rotate(0,75,35.5)" style="cursor: move; font-family: Arial; user-select: none; vector-effect: non-scaling-stroke;"><g class="scalable" id="v-1120" transform="scale(1.5,1.1833333333333333)" style="cursor: move; font-family: Arial; user-select: none; vector-effect: non-scaling-stroke;"><path class="outer" id="v-1121" d="M 0 30 L 20 0 L 80 0 L 100 30 L 80 60 L 20 60 z" fill="#92E3B1" stroke="black" stroke-width="1" width="100" height="60" stroke-dasharray="" style="cursor: move; font-family: Arial; user-select: none; vector-effect: non-scaling-stroke;"/></g><path class="satvalue" id="v-1122" stroke="#FFFF00" stroke-width="4" value="none" transform="translate(112.5,53.25)" style="cursor: move; font-family: Arial; user-select: none; vector-effect: non-scaling-stroke;"/><text class="funcvalue" id="v-1123" y="0.8em" display="null" xml:space="preserve" fill="black" font-size="16" transform="translate(30,53.25)" style="cursor: move; font-family: Arial; perspective-origin: 2.46528px 0px; user-select: none; vector-effect: non-scaling-stroke;"><tspan dy="0em" x="0" id="v-3839" class="v-line" style="cursor: move; font-family: Arial; user-select: none; vector-effect: non-scaling-stroke;"> </tspan></text><text class="name" id="v-1125" y="0.8em" display="null" xml:space="preserve" fill="black" font-size="13" transform="translate(26.4453125,15.28125)" style="cursor: move; font-family: Arial; perspective-origin: 52.7083px 0px; user-select: none; vector-effect: non-scaling-stroke;"><tspan dy="0em" x="0" id="v-3840" class="v-line" style="cursor: move; font-family: Arial; user-select: none; vector-effect: non-scaling-stroke;">Selecionar seus </tspan><tspan dy="1em" x="0" id="v-3841" class="v-line" style="cursor: move; font-family: Arial; user-select: none; vector-effect: non-scaling-stroke;">interesses ao </tspan><tspan dy="1em" x="0" id="v-3842" class="v-line" style="cursor: move; font-family: Arial; user-select: none; vector-effect: non-scaling-stroke;">criar o perfil</tspan></text></g></g><g id="j_46" model-id="cbf789f5-7720-40e0-98cf-35a4beb96e21" class="element basic Task joint-theme-default" transform="translate(520,760.0001220703125)" style="cursor: move; font-family: Arial; user-select: none;"><g class="rotatable" id="v-2546" transform="rotate(0,65,35)" style="cursor: move; font-family: Arial; user-select: none; vector-effect: non-scaling-stroke;"><g class="scalable" id="v-2547" transform="scale(1.3,1.1666666666666667)" style="cursor: move; font-family: Arial; user-select: none; vector-effect: non-scaling-stroke;"><path class="outer" id="v-2548" d="M 0 30 L 20 0 L 80 0 L 100 30 L 80 60 L 20 60 z" fill="#92E3B1" stroke="black" stroke-width="1" width="100" height="60" stroke-dasharray="" style="cursor: move; font-family: Arial; user-select: none; vector-effect: non-scaling-stroke;"/></g><path class="satvalue" id="v-2549" stroke="#FFFF00" stroke-width="4" value="none" transform="translate(97.5,52.5)" style="cursor: move; font-family: Arial; user-select: none; vector-effect: non-scaling-stroke;"/><text class="funcvalue" id="v-2550" y="0.8em" display="null" xml:space="preserve" fill="black" font-size="16" transform="translate(26,52.5)" style="cursor: move; font-family: Arial; perspective-origin: 2.46528px 0px; user-select: none; vector-effect: non-scaling-stroke;"><tspan dy="0em" x="0" id="v-3846" class="v-line" style="cursor: move; font-family: Arial; user-select: none; vector-effect: non-scaling-stroke;"> </tspan></text><text class="name" id="v-2552" y="0.8em" display="null" xml:space="preserve" fill="black" font-size="13" transform="translate(12.9140625,21.28125)" style="cursor: move; font-family: Arial; perspective-origin: 56.6319px 0px; user-select: none; vector-effect: non-scaling-stroke;"><tspan dy="0em" x="0" id="v-3847" class="v-line" style="cursor: move; font-family: Arial; user-select: none; vector-effect: non-scaling-stroke;">Dar feedback dos</tspan><tspan dy="1em" x="0" id="v-3848" class="v-line" style="cursor: move; font-family: Arial; user-select: none; vector-effect: non-scaling-stroke;">titulos</tspan></text></g></g><g id="j_49" model-id="ddbe5028-c29c-4a5c-9f2d-91e36206c399" class="element basic Task joint-theme-default" transform="translate(610,620)" style="cursor: move; font-family: Arial; user-select: none;"><g class="rotatable" id="v-2773" transform="rotate(0,55,30)" style="cursor: move; font-family: Arial; user-select: none; vector-effect: non-scaling-stroke;"><g class="scalable" id="v-2774" transform="scale(1.1,1)" style="cursor: move; font-family: Arial; user-select: none; vector-effect: non-scaling-stroke;"><path class="outer" id="v-2775" d="M 0 30 L 20 0 L 80 0 L 100 30 L 80 60 L 20 60 z" fill="#92E3B1" stroke="black" stroke-width="1" width="100" height="60" stroke-dasharray="" style="cursor: move; font-family: Arial; user-select: none; vector-effect: non-scaling-stroke;"/></g><path class="satvalue" id="v-2776" stroke="#FFFF00" stroke-width="4" value="none" transform="translate(82.5,45)" style="cursor: move; font-family: Arial; user-select: none; vector-effect: non-scaling-stroke;"/><text class="funcvalue" id="v-2777" y="0.8em" display="null" xml:space="preserve" fill="black" font-size="16" transform="translate(22,45)" style="cursor: move; font-family: Arial; perspective-origin: 2.46528px 0px; user-select: none; vector-effect: non-scaling-stroke;"><tspan dy="0em" x="0" id="v-3851" class="v-line" style="cursor: move; font-family: Arial; user-select: none; vector-effect: non-scaling-stroke;"> </tspan></text><text class="name" id="v-2779" y="0.8em" display="null" xml:space="preserve" fill="black" font-size="13" transform="translate(4,22.78125)" style="cursor: move; font-family: Arial; perspective-origin: 55.434px 0px; user-select: none; vector-effect: non-scaling-stroke;"><tspan dy="0em" x="0" id="v-3852" class="v-line" style="cursor: move; font-family: Arial; user-select: none; vector-effect: non-scaling-stroke;">Enviar sugestoes</tspan></text></g></g><g id="j_50" model-id="b1a5ce95-c4dd-4960-a3f7-a3a3faf22b0e" class="link joint-theme-default" style="pointer-events: visiblePainted; cursor: grabbing; font-family: Arial; user-select: none;"><path class="connection" stroke="#000000" d="M 639 620 580 552" id="v-2863" stroke-dasharray="0 0" style="cursor: grabbing; font-family: Arial; user-select: none; fill: none; stroke-linejoin: round;"/><path class="marker-source" fill="black" stroke="black" d="M 0 0" id="v-2864" transform="translate(639,620) scale(1,1) rotate(-130.97174072265625)" style="cursor: grabbing; font-family: Arial; user-select: none; vector-effect: non-scaling-stroke;"/><path class="marker-target" fill="black" stroke="#000000" d="M 10 0 L 10 10 M 10 5 L 0 5" id="v-2865" transform="translate(576.7751741572039,540.7215475771284) scale(1,1) rotate(49.02825927734381)" stroke-width="1" style="cursor: grabbing; font-family: Arial; user-select: none; vector-effect: non-scaling-stroke;"/><path class="connection-wrap" d="M 639 620 580 552" id="v-2866" style="cursor: move; font-family: Arial; opacity: 0; user-select: none; fill: none; stroke: rgb(0, 0, 0); stroke-linecap: round; stroke-linejoin: round; stroke-width: 15px;"/><g class="labels" id="v-2867" style="cursor: grabbing; font-family: Arial; user-select: none;"><g class="label" id="v-2935" label-idx="0" transform="translate(609.5, 586)" style="cursor: grabbing; font-family: Arial; user-select: none;"><rect fill="white" rx="3" ry="3" x="-12.78125" y="-8.7890625" width="25.5625" height="15.546875" style="cursor: grabbing; font-family: Arial; user-select: none;"/><text text-anchor="middle" font-size="14" id="v-2936" y="0.8em" display="null" xml:space="preserve" transform="translate(0,-7.7734375)" style="cursor: grabbing; font-family: Arial; perspective-origin: 0px 0px; user-select: none;"><tspan dy="0em" x="0" id="v-2937" class="v-line" style="cursor: grabbing; font-family: Arial; user-select: none;">and</tspan></text></g></g><g class="marker-vertices" id="v-2868" style="cursor: move; font-family: Arial; opacity: 0; user-select: none;"/><g class="marker-arrowheads" id="v-2869" style="cursor: grab; font-family: Arial; opacity: 0; user-select: none;"><g class="marker-arrowhead-group marker-arrowhead-group-source" id="v-2872" transform="translate(634.0922858026663,624.2619637356705) scale(0.5,0.5) rotate(-130.97174072265625)" style="cursor: grab; font-family: Arial; user-select: none;"><path class="marker-arrowhead" end="source" d="M 26 0 L 0 13 L 26 26 z" style="cursor: grab; font-family: Arial; user-select: none; fill: rgb(26, 188, 156);"/></g><g class="marker-arrowhead-group marker-arrowhead-group-target" id="v-2873" transform="translate(577.9077141973337,539.7380362643295) scale(0.5,0.5) rotate(49.02825927734381)" style="cursor: grab; font-family: Arial; user-select: none;"><path class="marker-arrowhead" end="target" d="M 26 0 L 0 13 L 26 26 z" style="cursor: grab; font-family: Arial; user-select: none; fill: rgb(26, 188, 156);"/></g></g><g class="link-tools" id="v-2870" style="cursor: pointer; font-family: Arial; opacity: 0; user-select: none;"><g class="link-tool" id="v-2871" transform="translate(625.8929443359375, 604.8935546875) scale(.5)" style="cursor: pointer; font-family: Arial; user-select: none;"><g class="tool-remove" event="remove" style="cursor: pointer; font-family: Arial; user-select: none;"><circle r="11" style="cursor: pointer; font-family: Arial; user-select: none; fill: rgb(255, 0, 0);"/><path transform="scale(.8) translate(-16, -16)" d="M24.778,21.419 19.276,15.917 24.777,10.415 21.949,7.585 16.447,13.087 10.945,7.585 8.117,10.415 13.618,15.917 8.116,21.419 10.946,24.248 16.447,18.746 21.948,24.248z" style="cursor: pointer; font-family: Arial; user-select: none; fill: rgb(255, 255, 255);"/><title style="cursor: pointer; font-family: Arial; user-select: none;">Remove link.</title></g><g class="tool-options" event="link:options" style="cursor: pointer; display: block; font-family: Arial; user-select: none;"><circle r="11" transform="translate(25)" style="cursor: pointer; font-family: Arial; user-select: none;"/><path fill="white" transform="scale(.55) translate(29, -16)" d="M31.229,17.736c0.064-0.571,0.104-1.148,0.104-1.736s-0.04-1.166-0.104-1.737l-4.377-1.557c-0.218-0.716-0.504-1.401-0.851-2.05l1.993-4.192c-0.725-0.91-1.549-1.734-2.458-2.459l-4.193,1.994c-0.647-0.347-1.334-0.632-2.049-0.849l-1.558-4.378C17.165,0.708,16.588,0.667,16,0.667s-1.166,0.041-1.737,0.105L12.707,5.15c-0.716,0.217-1.401,0.502-2.05,0.849L6.464,4.005C5.554,4.73,4.73,5.554,4.005,6.464l1.994,4.192c-0.347,0.648-0.632,1.334-0.849,2.05l-4.378,1.557C0.708,14.834,0.667,15.412,0.667,16s0.041,1.165,0.105,1.736l4.378,1.558c0.217,0.715,0.502,1.401,0.849,2.049l-1.994,4.193c0.725,0.909,1.549,1.733,2.459,2.458l4.192-1.993c0.648,0.347,1.334,0.633,2.05,0.851l1.557,4.377c0.571,0.064,1.148,0.104,1.737,0.104c0.588,0,1.165-0.04,1.736-0.104l1.558-4.377c0.715-0.218,1.399-0.504,2.049-0.851l4.193,1.993c0.909-0.725,1.733-1.549,2.458-2.458l-1.993-4.193c0.347-0.647,0.633-1.334,0.851-2.049L31.229,17.736zM16,20.871c-2.69,0-4.872-2.182-4.872-4.871c0-2.69,2.182-4.872,4.872-4.872c2.689,0,4.871,2.182,4.871,4.872C20.871,18.689,18.689,20.871,16,20.871z" style="cursor: pointer; font-family: Arial; user-select: none;"/><title style="cursor: pointer; font-family: Arial; user-select: none;">Link options.</title></g></g></g></g><g id="j_52" model-id="a4033014-f234-4447-9176-d0e16c909bc1" class="element basic Goal joint-theme-default" transform="translate(360,630)" style="cursor: move; font-family: Arial; user-select: none;"><g class="rotatable" id="v-3023" transform="rotate(0,80,20)" style="cursor: move; font-family: Arial; user-select: none; vector-effect: non-scaling-stroke;"><g class="scalable" id="v-3024" transform="scale(1.6,0.6666666666666666)" style="cursor: move; font-family: Arial; user-select: none; vector-effect: non-scaling-stroke;"><rect class="outer" id="v-3025" rx="20" ry="20" stroke="black" fill="#FFCC66" width="100" height="60" stroke-width="1" style="cursor: move; font-family: Arial; user-select: none; vector-effect: non-scaling-stroke;"/></g><path class="satvalue" id="v-3026" stroke="#FFFF00" stroke-width="4" value="none" transform="translate(128,30)" style="cursor: move; font-family: Arial; user-select: none; vector-effect: non-scaling-stroke;"/><text class="funcvalue" id="v-3029" y="0.8em" display="null" xml:space="preserve" fill="black" font-size="16" transform="translate(12.8,30)" style="cursor: move; font-family: Arial; perspective-origin: 2.46528px 0px; user-select: none; vector-effect: non-scaling-stroke;"><tspan dy="0em" x="0" id="v-3714" class="v-line" style="cursor: move; font-family: Arial; user-select: none; vector-effect: non-scaling-stroke;"> </tspan></text><text class="name" id="v-3027" y="0.8em" display="null" xml:space="preserve" fill="black" font-size="13" transform="translate(5.8984375,12.78125)" style="cursor: move; font-family: Arial; perspective-origin: 81.0938px 0px; user-select: none; vector-effect: non-scaling-stroke;"><tspan dy="0em" x="0" id="v-3713" class="v-line" style="cursor: move; font-family: Arial; user-select: none; vector-effect: non-scaling-stroke;">Ter boas recomendacoes</tspan></text></g></g><g id="j_53" model-id="ec9fc878-1f0d-4131-9ca6-630119d742c4" class="link joint-theme-default" style="pointer-events: visiblePainted; cursor: grabbing; font-family: Arial; user-select: none;"><path class="connection" stroke="#000000" d="M 459 630 522 552" id="v-3177" stroke-dasharray="0 0" style="cursor: grabbing; font-family: Arial; user-select: none; fill: none; stroke-linejoin: round;"/><path class="marker-source" fill="black" stroke="black" d="M 0 0" id="v-3178" transform="translate(459,630) scale(1,1) rotate(-51.259037017822266)" style="cursor: grabbing; font-family: Arial; user-select: none; vector-effect: non-scaling-stroke;"/><path class="marker-target" fill="black" stroke="#000000" d="M 10 0 L 10 10 M 10 5 L 0 5" id="v-3179" transform="translate(531.8998900019142,547.128989106436) scale(1,1) rotate(-231.25903320312503)" stroke-width="1" style="cursor: grabbing; font-family: Arial; user-select: none; vector-effect: non-scaling-stroke;"/><path class="connection-wrap" d="M 459 630 522 552" id="v-3180" style="cursor: move; font-family: Arial; opacity: 0; user-select: none; fill: none; stroke: rgb(0, 0, 0); stroke-linecap: round; stroke-linejoin: round; stroke-width: 15px;"/><g class="labels" id="v-3181" style="cursor: grabbing; font-family: Arial; user-select: none;"><g class="label" id="v-3197" label-idx="0" transform="translate(490.5, 591)" style="cursor: grabbing; font-family: Arial; user-select: none;"><rect fill="white" rx="3" ry="3" x="-12.78125" y="-8.7890625" width="25.5625" height="15.546875" style="cursor: grabbing; font-family: Arial; user-select: none;"/><text text-anchor="middle" font-size="14" id="v-3198" y="0.8em" display="null" xml:space="preserve" transform="translate(0,-7.7734375)" style="cursor: grabbing; font-family: Arial; perspective-origin: 0px 0px; user-select: none;"><tspan dy="0em" x="0" id="v-3199" class="v-line" style="cursor: grabbing; font-family: Arial; user-select: none;">and</tspan></text></g></g><g class="marker-vertices" id="v-3182" style="cursor: move; font-family: Arial; opacity: 0; user-select: none;"/><g class="marker-arrowheads" id="v-3183" style="cursor: grab; font-family: Arial; opacity: 0; user-select: none;"><g class="marker-arrowhead-group marker-arrowhead-group-source" id="v-3186" transform="translate(448.86021898980056,621.8646051259482) scale(1,1) rotate(-51.259037017822266)" style="cursor: grab; font-family: Arial; user-select: none;"><path class="marker-arrowhead" end="source" d="M 26 0 L 0 13 L 26 26 z" style="cursor: grab; font-family: Arial; user-select: none; fill: rgb(26, 188, 156);"/></g><g class="marker-arrowhead-group marker-arrowhead-group-target" id="v-3187" transform="translate(538.1398116612269,552.1353960907961) scale(1,1) rotate(-231.25903320312503)" style="cursor: grab; font-family: Arial; user-select: none;"><path class="marker-arrowhead" end="target" d="M 26 0 L 0 13 L 26 26 z" style="cursor: grab; font-family: Arial; user-select: none; fill: rgb(26, 188, 156);"/></g></g><g class="link-tools" id="v-3184" style="cursor: pointer; font-family: Arial; opacity: 0; user-select: none;"><g class="link-tool" id="v-3185" transform="translate(484.13348388671875, 598.88232421875) " style="cursor: pointer; font-family: Arial; user-select: none;"><g class="tool-remove" event="remove" style="cursor: pointer; font-family: Arial; user-select: none;"><circle r="11" style="cursor: pointer; font-family: Arial; user-select: none; fill: rgb(255, 0, 0);"/><path transform="scale(.8) translate(-16, -16)" d="M24.778,21.419 19.276,15.917 24.777,10.415 21.949,7.585 16.447,13.087 10.945,7.585 8.117,10.415 13.618,15.917 8.116,21.419 10.946,24.248 16.447,18.746 21.948,24.248z" style="cursor: pointer; font-family: Arial; user-select: none; fill: rgb(255, 255, 255);"/><title style="cursor: pointer; font-family: Arial; user-select: none;">Remove link.</title></g><g class="tool-options" event="link:options" style="cursor: pointer; display: block; font-family: Arial; user-select: none;"><circle r="11" transform="translate(25)" style="cursor: pointer; font-family: Arial; user-select: none;"/><path fill="white" transform="scale(.55) translate(29, -16)" d="M31.229,17.736c0.064-0.571,0.104-1.148,0.104-1.736s-0.04-1.166-0.104-1.737l-4.377-1.557c-0.218-0.716-0.504-1.401-0.851-2.05l1.993-4.192c-0.725-0.91-1.549-1.734-2.458-2.459l-4.193,1.994c-0.647-0.347-1.334-0.632-2.049-0.849l-1.558-4.378C17.165,0.708,16.588,0.667,16,0.667s-1.166,0.041-1.737,0.105L12.707,5.15c-0.716,0.217-1.401,0.502-2.05,0.849L6.464,4.005C5.554,4.73,4.73,5.554,4.005,6.464l1.994,4.192c-0.347,0.648-0.632,1.334-0.849,2.05l-4.378,1.557C0.708,14.834,0.667,15.412,0.667,16s0.041,1.165,0.105,1.736l4.378,1.558c0.217,0.715,0.502,1.401,0.849,2.049l-1.994,4.193c0.725,0.909,1.549,1.733,2.459,2.458l4.192-1.993c0.648,0.347,1.334,0.633,2.05,0.851l1.557,4.377c0.571,0.064,1.148,0.104,1.737,0.104c0.588,0,1.165-0.04,1.736-0.104l1.558-4.377c0.715-0.218,1.399-0.504,2.049-0.851l4.193,1.993c0.909-0.725,1.733-1.549,2.458-2.458l-1.993-4.193c0.347-0.647,0.633-1.334,0.851-2.049L31.229,17.736zM16,20.871c-2.69,0-4.872-2.182-4.872-4.871c0-2.69,2.182-4.872,4.872-4.872c2.689,0,4.871,2.182,4.871,4.872C20.871,18.689,18.689,20.871,16,20.871z" style="cursor: pointer; font-family: Arial; user-select: none;"/><title style="cursor: pointer; font-family: Arial; user-select: none;">Link options.</title></g></g></g></g><g id="j_54" model-id="d127a742-21c7-433f-8327-fae383aabad5" class="link joint-theme-default" style="pointer-events: visiblePainted; cursor: grabbing; font-family: Arial; user-select: none;"><path class="connection" stroke="#000000" d="M 327 750 405 683" id="v-3200" stroke-dasharray="0 0" style="cursor: grabbing; font-family: Arial; user-select: none; fill: none; stroke-linejoin: round;"/><path class="marker-source" fill="black" stroke="black" d="M 0 0" id="v-3201" transform="translate(327,750) scale(1,1) rotate(-40.71084594726562)" style="cursor: grabbing; font-family: Arial; user-select: none; vector-effect: non-scaling-stroke;"/><path class="marker-target" fill="black" stroke="#000000" d="M 10 0 L 10 10 M 10 5 L 0 5" id="v-3202" transform="translate(416.2611943554068,679.7900753535032) scale(1,1) rotate(-220.71084594726562)" stroke-width="1" style="cursor: grabbing; font-family: Arial; user-select: none; vector-effect: non-scaling-stroke;"/><path class="connection-wrap" d="M 327 750 405 683" id="v-3203" style="cursor: move; font-family: Arial; opacity: 0; user-select: none; fill: none; stroke: rgb(0, 0, 0); stroke-linecap: round; stroke-linejoin: round; stroke-width: 15px;"/><g class="labels" id="v-3204" style="cursor: grabbing; font-family: Arial; user-select: none;"><g class="label" id="v-3220" label-idx="0" transform="translate(366, 716.5)" style="cursor: grabbing; font-family: Arial; user-select: none;"><rect fill="white" rx="3" ry="3" x="-12.78125" y="-8.7890625" width="25.5625" height="15.546875" style="cursor: grabbing; font-family: Arial; user-select: none;"/><text text-anchor="middle" font-size="14" id="v-3221" y="0.8em" display="null" xml:space="preserve" transform="translate(0,-7.7734375)" style="cursor: grabbing; font-family: Arial; perspective-origin: 0px 0px; user-select: none;"><tspan dy="0em" x="0" id="v-3222" class="v-line" style="cursor: grabbing; font-family: Arial; user-select: none;">and</tspan></text></g></g><g class="marker-vertices" id="v-3205" style="cursor: move; font-family: Arial; opacity: 0; user-select: none;"/><g class="marker-arrowheads" id="v-3206" style="cursor: grab; font-family: Arial; opacity: 0; user-select: none;"><g class="marker-arrowhead-group marker-arrowhead-group-source" id="v-3209" transform="translate(318.5208702618798,740.1458773230793) scale(1,1) rotate(-40.71084594726562)" style="cursor: grab; font-family: Arial; user-select: none;"><path class="marker-arrowhead" end="source" d="M 26 0 L 0 13 L 26 26 z" style="cursor: grab; font-family: Arial; user-select: none; fill: rgb(26, 188, 156);"/></g><g class="marker-arrowhead-group marker-arrowhead-group-target" id="v-3210" transform="translate(421.4791297381202,685.8541226769207) scale(1,1) rotate(-220.71084594726562)" style="cursor: grab; font-family: Arial; user-select: none;"><path class="marker-arrowhead" end="target" d="M 26 0 L 0 13 L 26 26 z" style="cursor: grab; font-family: Arial; user-select: none; fill: rgb(26, 188, 156);"/></g></g><g class="link-tools" id="v-3207" style="cursor: pointer; font-family: Arial; opacity: 0; user-select: none;"><g class="link-tool" id="v-3208" transform="translate(357.3427734375, 723.9363403320312) " style="cursor: pointer; font-family: Arial; user-select: none;"><g class="tool-remove" event="remove" style="cursor: pointer; font-family: Arial; user-select: none;"><circle r="11" style="cursor: pointer; font-family: Arial; user-select: none; fill: rgb(255, 0, 0);"/><path transform="scale(.8) translate(-16, -16)" d="M24.778,21.419 19.276,15.917 24.777,10.415 21.949,7.585 16.447,13.087 10.945,7.585 8.117,10.415 13.618,15.917 8.116,21.419 10.946,24.248 16.447,18.746 21.948,24.248z" style="cursor: pointer; font-family: Arial; user-select: none; fill: rgb(255, 255, 255);"/><title style="cursor: pointer; font-family: Arial; user-select: none;">Remove link.</title></g><g class="tool-options" event="link:options" style="cursor: pointer; display: block; font-family: Arial; user-select: none;"><circle r="11" transform="translate(25)" style="cursor: pointer; font-family: Arial; user-select: none;"/><path fill="white" transform="scale(.55) translate(29, -16)" d="M31.229,17.736c0.064-0.571,0.104-1.148,0.104-1.736s-0.04-1.166-0.104-1.737l-4.377-1.557c-0.218-0.716-0.504-1.401-0.851-2.05l1.993-4.192c-0.725-0.91-1.549-1.734-2.458-2.459l-4.193,1.994c-0.647-0.347-1.334-0.632-2.049-0.849l-1.558-4.378C17.165,0.708,16.588,0.667,16,0.667s-1.166,0.041-1.737,0.105L12.707,5.15c-0.716,0.217-1.401,0.502-2.05,0.849L6.464,4.005C5.554,4.73,4.73,5.554,4.005,6.464l1.994,4.192c-0.347,0.648-0.632,1.334-0.849,2.05l-4.378,1.557C0.708,14.834,0.667,15.412,0.667,16s0.041,1.165,0.105,1.736l4.378,1.558c0.217,0.715,0.502,1.401,0.849,2.049l-1.994,4.193c0.725,0.909,1.549,1.733,2.459,2.458l4.192-1.993c0.648,0.347,1.334,0.633,2.05,0.851l1.557,4.377c0.571,0.064,1.148,0.104,1.737,0.104c0.588,0,1.165-0.04,1.736-0.104l1.558-4.377c0.715-0.218,1.399-0.504,2.049-0.851l4.193,1.993c0.909-0.725,1.733-1.549,2.458-2.458l-1.993-4.193c0.347-0.647,0.633-1.334,0.851-2.049L31.229,17.736zM16,20.871c-2.69,0-4.872-2.182-4.872-4.871c0-2.69,2.182-4.872,4.872-4.872c2.689,0,4.871,2.182,4.871,4.872C20.871,18.689,18.689,20.871,16,20.871z" style="cursor: pointer; font-family: Arial; user-select: none;"/><title style="cursor: pointer; font-family: Arial; user-select: none;">Link options.</title></g></g></g></g><g id="j_55" model-id="81f3faa4-28c1-496f-aed3-624760a2ec9b" class="link joint-theme-default" style="pointer-events: visiblePainted; cursor: grabbing; font-family: Arial; user-select: none;"><path class="connection" stroke="#000000" d="M 440 760 440 686" id="v-3223" stroke-dasharray="0 0" style="cursor: grabbing; font-family: Arial; user-select: none; fill: none; stroke-linejoin: round;"/><path class="marker-source" fill="black" stroke="black" d="M 0 0" id="v-3224" transform="translate(440,760) scale(1,1) rotate(-90)" style="cursor: grabbing; font-family: Arial; user-select: none; vector-effect: non-scaling-stroke;"/><path class="marker-target" fill="black" stroke="#000000" d="M 10 0 L 10 10 M 10 5 L 0 5" id="v-3225" transform="translate(445.00000000000006,676) scale(1,1) rotate(-270)" stroke-width="1" style="cursor: grabbing; font-family: Arial; user-select: none; vector-effect: non-scaling-stroke;"/><path class="connection-wrap" d="M 440 760 440 686" id="v-3226" style="cursor: move; font-family: Arial; opacity: 0; user-select: none; fill: none; stroke: rgb(0, 0, 0); stroke-linecap: round; stroke-linejoin: round; stroke-width: 15px;"/><g class="labels" id="v-3227" style="cursor: grabbing; font-family: Arial; user-select: none;"><g class="label" id="v-3257" label-idx="0" transform="translate(440, 723)" style="cursor: grabbing; font-family: Arial; user-select: none;"><rect fill="white" rx="3" ry="3" x="-12.78125" y="-8.7890625" width="25.5625" height="15.546875" style="cursor: grabbing; font-family: Arial; user-select: none;"/><text text-anchor="middle" font-size="14" id="v-3258" y="0.8em" display="null" xml:space="preserve" transform="translate(0,-7.7734375)" style="cursor: grabbing; font-family: Arial; perspective-origin: 0px 0px; user-select: none;"><tspan dy="0em" x="0" id="v-3259" class="v-line" style="cursor: grabbing; font-family: Arial; user-select: none;">and</tspan></text></g></g><g class="marker-vertices" id="v-3228" style="cursor: move; font-family: Arial; opacity: 0; user-select: none;"/><g class="marker-arrowheads" id="v-3229" style="cursor: grab; font-family: Arial; opacity: 0; user-select: none;"><g class="marker-arrowhead-group marker-arrowhead-group-source" id="v-3232" transform="translate(433.49999999999994,760) scale(0.5,0.5) rotate(-90)" style="cursor: grab; font-family: Arial; user-select: none;"><path class="marker-arrowhead" end="source" d="M 26 0 L 0 13 L 26 26 z" style="cursor: grab; font-family: Arial; user-select: none; fill: rgb(26, 188, 156);"/></g><g class="marker-arrowhead-group marker-arrowhead-group-target" id="v-3233" transform="translate(446.50000000000006,676) scale(0.5,0.5) rotate(-270)" style="cursor: grab; font-family: Arial; user-select: none;"><path class="marker-arrowhead" end="target" d="M 26 0 L 0 13 L 26 26 z" style="cursor: grab; font-family: Arial; user-select: none; fill: rgb(26, 188, 156);"/></g></g><g class="link-tools" id="v-3230" style="cursor: pointer; font-family: Arial; opacity: 0; user-select: none;"><g class="link-tool" id="v-3231" transform="translate(440, 740) scale(.5)" style="cursor: pointer; font-family: Arial; user-select: none;"><g class="tool-remove" event="remove" style="cursor: pointer; font-family: Arial; user-select: none;"><circle r="11" style="cursor: pointer; font-family: Arial; user-select: none; fill: rgb(255, 0, 0);"/><path transform="scale(.8) translate(-16, -16)" d="M24.778,21.419 19.276,15.917 24.777,10.415 21.949,7.585 16.447,13.087 10.945,7.585 8.117,10.415 13.618,15.917 8.116,21.419 10.946,24.248 16.447,18.746 21.948,24.248z" style="cursor: pointer; font-family: Arial; user-select: none; fill: rgb(255, 255, 255);"/><title style="cursor: pointer; font-family: Arial; user-select: none;">Remove link.</title></g><g class="tool-options" event="link:options" style="cursor: pointer; display: block; font-family: Arial; user-select: none;"><circle r="11" transform="translate(25)" style="cursor: pointer; font-family: Arial; user-select: none;"/><path fill="white" transform="scale(.55) translate(29, -16)" d="M31.229,17.736c0.064-0.571,0.104-1.148,0.104-1.736s-0.04-1.166-0.104-1.737l-4.377-1.557c-0.218-0.716-0.504-1.401-0.851-2.05l1.993-4.192c-0.725-0.91-1.549-1.734-2.458-2.459l-4.193,1.994c-0.647-0.347-1.334-0.632-2.049-0.849l-1.558-4.378C17.165,0.708,16.588,0.667,16,0.667s-1.166,0.041-1.737,0.105L12.707,5.15c-0.716,0.217-1.401,0.502-2.05,0.849L6.464,4.005C5.554,4.73,4.73,5.554,4.005,6.464l1.994,4.192c-0.347,0.648-0.632,1.334-0.849,2.05l-4.378,1.557C0.708,14.834,0.667,15.412,0.667,16s0.041,1.165,0.105,1.736l4.378,1.558c0.217,0.715,0.502,1.401,0.849,2.049l-1.994,4.193c0.725,0.909,1.549,1.733,2.459,2.458l4.192-1.993c0.648,0.347,1.334,0.633,2.05,0.851l1.557,4.377c0.571,0.064,1.148,0.104,1.737,0.104c0.588,0,1.165-0.04,1.736-0.104l1.558-4.377c0.715-0.218,1.399-0.504,2.049-0.851l4.193,1.993c0.909-0.725,1.733-1.549,2.458-2.458l-1.993-4.193c0.347-0.647,0.633-1.334,0.851-2.049L31.229,17.736zM16,20.871c-2.69,0-4.872-2.182-4.872-4.871c0-2.69,2.182-4.872,4.872-4.872c2.689,0,4.871,2.182,4.871,4.872C20.871,18.689,18.689,20.871,16,20.871z" style="cursor: pointer; font-family: Arial; user-select: none;"/><title style="cursor: pointer; font-family: Arial; user-select: none;">Link options.</title></g></g></g></g><g id="j_57" model-id="366682bf-aa8a-4b0a-b22c-8e5104d48810" class="link joint-theme-default" style="pointer-events: visiblePainted; cursor: grabbing; font-family: Arial; user-select: none;"><path class="connection" stroke="#000000" d="M 549 760 471 683" id="v-3294" stroke-dasharray="0 0" style="cursor: grabbing; font-family: Arial; user-select: none; fill: none; stroke-linejoin: round;"/><path class="marker-source" fill="black" stroke="black" d="M 0 0" id="v-3295" transform="translate(549,760) scale(1,1) rotate(-135.33901977539062)" style="cursor: grabbing; font-family: Arial; user-select: none; vector-effect: non-scaling-stroke;"/><path class="marker-target" fill="black" stroke="#000000" d="M 10 0 L 10 10 M 10 5 L 0 5" id="v-3296" transform="translate(467.51455714029964,672.4435823376192) scale(1,1) rotate(44.6609802246094)" stroke-width="1" style="cursor: grabbing; font-family: Arial; user-select: none; vector-effect: non-scaling-stroke;"/><path class="connection-wrap" d="M 549 760 471 683" id="v-3297" style="cursor: move; font-family: Arial; opacity: 0; user-select: none; fill: none; stroke: rgb(0, 0, 0); stroke-linecap: round; stroke-linejoin: round; stroke-width: 15px;"/><g class="labels" id="v-3298" style="cursor: grabbing; font-family: Arial; user-select: none;"><g class="label" id="v-3314" label-idx="0" transform="translate(510, 721.5)" style="cursor: grabbing; font-family: Arial; user-select: none;"><rect fill="white" rx="3" ry="3" x="-12.78125" y="-8.7890625" width="25.5625" height="15.546875" style="cursor: grabbing; font-family: Arial; user-select: none;"/><text text-anchor="middle" font-size="14" id="v-3315" y="0.8em" display="null" xml:space="preserve" transform="translate(0,-7.7734375)" style="cursor: grabbing; font-family: Arial; perspective-origin: 0px 0px; user-select: none;"><tspan dy="0em" x="0" id="v-3316" class="v-line" style="cursor: grabbing; font-family: Arial; user-select: none;">and</tspan></text></g></g><g class="marker-vertices" id="v-3299" style="cursor: move; font-family: Arial; opacity: 0; user-select: none;"/><g class="marker-arrowheads" id="v-3300" style="cursor: grab; font-family: Arial; opacity: 0; user-select: none;"><g class="marker-arrowhead-group marker-arrowhead-group-source" id="v-3303" transform="translate(539.8621392281898,769.246637094065) scale(1,1) rotate(-135.33901977539062)" style="cursor: grab; font-family: Arial; user-select: none;"><path class="marker-arrowhead" end="source" d="M 26 0 L 0 13 L 26 26 z" style="cursor: grab; font-family: Arial; user-select: none; fill: rgb(26, 188, 156);"/></g><g class="marker-arrowhead-group marker-arrowhead-group-target" id="v-3304" transform="translate(473.13783025423203,666.753362905935) scale(1,1) rotate(44.6609802246094)" style="cursor: grab; font-family: Arial; user-select: none;"><path class="marker-arrowhead" end="target" d="M 26 0 L 0 13 L 26 26 z" style="cursor: grab; font-family: Arial; user-select: none; fill: rgb(26, 188, 156);"/></g></g><g class="link-tools" id="v-3301" style="cursor: pointer; font-family: Arial; opacity: 0; user-select: none;"><g class="link-tool" id="v-3302" transform="translate(520.5338134765625, 731.8988037109375) " style="cursor: pointer; font-family: Arial; user-select: none;"><g class="tool-remove" event="remove" style="cursor: pointer; font-family: Arial; user-select: none;"><circle r="11" style="cursor: pointer; font-family: Arial; user-select: none; fill: rgb(255, 0, 0);"/><path transform="scale(.8) translate(-16, -16)" d="M24.778,21.419 19.276,15.917 24.777,10.415 21.949,7.585 16.447,13.087 10.945,7.585 8.117,10.415 13.618,15.917 8.116,21.419 10.946,24.248 16.447,18.746 21.948,24.248z" style="cursor: pointer; font-family: Arial; user-select: none; fill: rgb(255, 255, 255);"/><title style="cursor: pointer; font-family: Arial; user-select: none;">Remove link.</title></g><g class="tool-options" event="link:options" style="cursor: pointer; display: block; font-family: Arial; user-select: none;"><circle r="11" transform="translate(25)" style="cursor: pointer; font-family: Arial; user-select: none;"/><path fill="white" transform="scale(.55) translate(29, -16)" d="M31.229,17.736c0.064-0.571,0.104-1.148,0.104-1.736s-0.04-1.166-0.104-1.737l-4.377-1.557c-0.218-0.716-0.504-1.401-0.851-2.05l1.993-4.192c-0.725-0.91-1.549-1.734-2.458-2.459l-4.193,1.994c-0.647-0.347-1.334-0.632-2.049-0.849l-1.558-4.378C17.165,0.708,16.588,0.667,16,0.667s-1.166,0.041-1.737,0.105L12.707,5.15c-0.716,0.217-1.401,0.502-2.05,0.849L6.464,4.005C5.554,4.73,4.73,5.554,4.005,6.464l1.994,4.192c-0.347,0.648-0.632,1.334-0.849,2.05l-4.378,1.557C0.708,14.834,0.667,15.412,0.667,16s0.041,1.165,0.105,1.736l4.378,1.558c0.217,0.715,0.502,1.401,0.849,2.049l-1.994,4.193c0.725,0.909,1.549,1.733,2.459,2.458l4.192-1.993c0.648,0.347,1.334,0.633,2.05,0.851l1.557,4.377c0.571,0.064,1.148,0.104,1.737,0.104c0.588,0,1.165-0.04,1.736-0.104l1.558-4.377c0.715-0.218,1.399-0.504,2.049-0.851l4.193,1.993c0.909-0.725,1.733-1.549,2.458-2.458l-1.993-4.193c0.347-0.647,0.633-1.334,0.851-2.049L31.229,17.736zM16,20.871c-2.69,0-4.872-2.182-4.872-4.871c0-2.69,2.182-4.872,4.872-4.872c2.689,0,4.871,2.182,4.871,4.872C20.871,18.689,18.689,20.871,16,20.871z" style="cursor: pointer; font-family: Arial; user-select: none;"/><title style="cursor: pointer; font-family: Arial; user-select: none;">Link options.</title></g></g></g></g></g><defs id="v-4" style="cursor: grabbing; font-family: Arial; user-select: none;"/></svg>