<svg xmlns="http://www.w3.org/2000/svg" xmlns:xlink="http://www.w3.org/1999/xlink" version="1.1" id="v-2" width="100%" height="100%" viewBox="190.0000292551186 70.00000656975638 780.0000610351562 410.0000305175781"><g id="v-3" class="viewport" transform="" style="cursor: grabbing; font-family: Arial; user-select: none;"><g id="j_7" model-id="0187963d-9891-49ce-9a9c-8ae7b4c31928" class="element basic Actor joint-theme-default highlighted" transform="translate(190,70)" style="cursor: move; font-family: Arial; outline: rgb(255, 0, 0) solid 1.11111px; user-select: none;"><g class="scalable" id="v-64" transform="scale(6.5,3.4166666666666665)" style="cursor: move; font-family: Arial; user-select: none; vector-effect: non-scaling-stroke;"><circle class="outer" id="v-68" r="60" cx="60" cy="60" fill="#CCFFCC" stroke="black" stroke-dasharray="5 2" stroke-width="1" style="cursor: move; font-family: Arial; user-select: none; vector-effect: non-scaling-stroke;"/></g><circle class="label" id="v-65" r="30" cx="195" cy="41.20304120786162" fill="#FFFFA4" stroke="#000000" style="cursor: move; font-family: Arial; user-select: none; vector-effect: non-scaling-stroke;"/><path class="line" id="v-66" style="cursor: move; font-family: Arial; user-select: none; vector-effect: non-scaling-stroke;"/><text class="name" id="v-67" y="0.8em" display="null" xml:space="preserve" fill="black" font-size="10" transform="translate(179.7265625,35.648353576660156)" style="cursor: move; font-family: Arial; perspective-origin: 15.7292px 0px; user-select: none; vector-effect: non-scaling-stroke;"><tspan dy="0em" x="0" id="v-1029" class="v-line" style="cursor: move; font-family: Arial; user-select: none; vector-effect: non-scaling-stroke;">Netflix</tspan></text></g><g id="j_8" model-id="cca6bf2b-58c1-40fa-bf76-d327b773ff64" class="element basic Goal joint-theme-default" transform="translate(510,140)" style="cursor: move; font-family: Arial; user-select: none;"><g class="rotatable" id="v-71" transform="rotate(0,60,25)" style="cursor: move; font-family: Arial; user-select: none; vector-effect: non-scaling-stroke;"><g class="scalable" id="v-72" transform="scale(1.2,0.8333333333333334)" style="cursor: move; font-family: Arial; user-select: none; vector-effect: non-scaling-stroke;"><rect class="outer" id="v-73" rx="20" ry="20" stroke="black" fill="#FFCC66" width="100" height="60" stroke-width="1" stroke-dasharray="" style="cursor: move; font-family: Arial; user-select: none; vector-effect: non-scaling-stroke;"/></g><path class="satvalue" id="v-74" stroke="#FFFF00" stroke-width="4" value="none" transform="translate(96,37.5)" style="cursor: move; font-family: Arial; user-select: none; vector-effect: non-scaling-stroke;"/><text class="funcvalue" id="v-79" y="0.8em" display="null" xml:space="preserve" fill="black" font-size="16" transform="translate(9.6,37.5)" style="cursor: move; font-family: Arial; perspective-origin: 2.46528px 0px; user-select: none; vector-effect: non-scaling-stroke;"><tspan dy="0em" x="0" id="v-690" class="v-line" style="cursor: move; font-family: Arial; user-select: none; vector-effect: non-scaling-stroke;"> </tspan></text><text class="name" id="v-75" y="0.8em" display="null" xml:space="preserve" fill="black" font-size="10" transform="translate(10.8125,9.4453125)" style="cursor: move; font-family: Arial; perspective-origin: 53.4201px 0px; user-select: none; vector-effect: non-scaling-stroke;"><tspan dy="0em" x="0" id="v-687" class="v-line" style="cursor: move; font-family: Arial; user-select: none; vector-effect: non-scaling-stroke;">Fornecer catalogo</tspan><tspan dy="1em" x="0" id="v-688" class="v-line" style="cursor: move; font-family: Arial; user-select: none; vector-effect: non-scaling-stroke;"> de acordo com as</tspan><tspan dy="1em" x="0" id="v-689" class="v-line" style="cursor: move; font-family: Arial; user-select: none; vector-effect: non-scaling-stroke;"> preferencias do perfil</tspan></text></g></g><g id="j_9" model-id="f880dfe9-316d-4de1-8525-9aa28b901529" class="element basic Task joint-theme-default" transform="translate(240,260)" style="cursor: move; font-family: Arial; user-select: none;"><g class="rotatable" id="v-85" transform="rotate(0,60,25)" style="cursor: move; font-family: Arial; user-select: none; vector-effect: non-scaling-stroke;"><g class="scalable" id="v-86" transform="scale(1.2,0.8333333333333334)" style="cursor: move; font-family: Arial; user-select: none; vector-effect: non-scaling-stroke;"><path class="outer" id="v-87" d="M 0 30 L 20 0 L 80 0 L 100 30 L 80 60 L 20 60 z" fill="#92E3B1" stroke="black" stroke-width="1" width="100" height="60" stroke-dasharray="" style="cursor: move; font-family: Arial; user-select: none; vector-effect: non-scaling-stroke;"/></g><path class="satvalue" id="v-88" stroke="#FFFF00" stroke-width="4" value="none" transform="translate(90,37.5)" style="cursor: move; font-family: Arial; user-select: none; vector-effect: non-scaling-stroke;"/><text class="funcvalue" id="v-89" y="0.8em" display="null" xml:space="preserve" fill="black" font-size="16" transform="translate(24,37.5)" style="cursor: move; font-family: Arial; perspective-origin: 2.46528px 0px; user-select: none; vector-effect: non-scaling-stroke;"><tspan dy="0em" x="0" id="v-1258" class="v-line" style="cursor: move; font-family: Arial; user-select: none; vector-effect: non-scaling-stroke;"> </tspan></text><text class="name" id="v-91" y="0.8em" display="null" xml:space="preserve" fill="black" font-size="10" transform="translate(14.976570129394531,9.4453125)" style="cursor: move; font-family: Arial; perspective-origin: 48.7847px 0px; user-select: none; vector-effect: non-scaling-stroke;"><tspan dy="0em" x="0" id="v-1259" class="v-line" style="cursor: move; font-family: Arial; user-select: none; vector-effect: non-scaling-stroke;">Obter avaliacao do</tspan><tspan dy="1em" x="0" id="v-1260" class="v-line" style="cursor: move; font-family: Arial; user-select: none; vector-effect: non-scaling-stroke;"> usuario sobre cada</tspan><tspan dy="1em" x="0" id="v-1261" class="v-line" style="cursor: move; font-family: Arial; user-select: none; vector-effect: non-scaling-stroke;"> conteudo</tspan></text></g></g><g id="j_10" model-id="3e05b7cd-ba1a-4318-a0bd-89cb24ba79ff" class="element basic Task joint-theme-default" transform="translate(570,260)" style="cursor: move; font-family: Arial; user-select: none;"><g class="rotatable" id="v-99" transform="rotate(0,50,30)" style="cursor: move; font-family: Arial; user-select: none; vector-effect: non-scaling-stroke;"><g class="scalable" id="v-100" transform="scale(1,1)" style="cursor: move; font-family: Arial; user-select: none; vector-effect: non-scaling-stroke;"><path class="outer" id="v-101" d="M 0 30 L 20 0 L 80 0 L 100 30 L 80 60 L 20 60 z" fill="#92E3B1" stroke="black" stroke-width="1" width="100" height="60" stroke-dasharray="" style="cursor: move; font-family: Arial; user-select: none; vector-effect: non-scaling-stroke;"/></g><path class="satvalue" id="v-102" stroke="#FFFF00" stroke-width="4" value="none" transform="translate(75,45)" style="cursor: move; font-family: Arial; user-select: none; vector-effect: non-scaling-stroke;"/><text class="funcvalue" id="v-103" y="0.8em" display="null" xml:space="preserve" fill="black" font-size="16" transform="translate(20,45)" style="cursor: move; font-family: Arial; perspective-origin: 2.46528px 0px; user-select: none; vector-effect: non-scaling-stroke;"><tspan dy="0em" x="0" id="v-1265" class="v-line" style="cursor: move; font-family: Arial; user-select: none; vector-effect: non-scaling-stroke;"> </tspan></text><text class="name" id="v-105" y="0.8em" display="null" xml:space="preserve" fill="black" font-size="10" transform="translate(6.65625,19.4453125)" style="cursor: move; font-family: Arial; perspective-origin: 46.9271px 0px; user-select: none; vector-effect: non-scaling-stroke;"><tspan dy="0em" x="0" id="v-1266" class="v-line" style="cursor: move; font-family: Arial; user-select: none; vector-effect: non-scaling-stroke;">Analisar o historico</tspan><tspan dy="1em" x="0" id="v-1267" class="v-line" style="cursor: move; font-family: Arial; user-select: none; vector-effect: non-scaling-stroke;"> de cada perfil</tspan></text></g></g><g id="j_15" model-id="16320cf8-db94-473d-bf65-9aa3f0a06f5e" class="link joint-theme-default" style="cursor: grabbing; font-family: Arial; user-select: none;"><path class="connection" stroke="#000000" d="M 608 260 585 203" id="v-165" stroke-dasharray="0 0" style="cursor: grabbing; font-family: Arial; user-select: none; fill: none; stroke-linejoin: round;"/><path class="marker-source" fill="black" stroke="black" d="M 0 0" id="v-166" transform="translate(608,260) scale(1,1) rotate(-112.2490234375)" style="cursor: grabbing; font-family: Arial; user-select: none; vector-effect: non-scaling-stroke;"/><path class="marker-target" fill="black" stroke="#000000" d="M 10 0 L 10 10 M 10 5 L 0 5" id="v-167" stroke-width="1" transform="translate(585.627759053994,192.10683232409755) scale(1,1) rotate(67.7509765625)" style="cursor: grabbing; font-family: Arial; user-select: none; vector-effect: non-scaling-stroke;"/><path class="connection-wrap" d="M 608 260 585 203" id="v-168" style="cursor: move; font-family: Arial; opacity: 0; user-select: none; fill: none; stroke: rgb(0, 0, 0); stroke-linecap: round; stroke-linejoin: round; stroke-width: 15px;"/><g class="labels" id="v-169" style="cursor: grabbing; font-family: Arial; user-select: none;"><g class="label" id="v-177" label-idx="0" transform="translate(596.5, 231.5)" style="cursor: grabbing; font-family: Arial; user-select: none;"><rect fill="white" rx="3" ry="3" x="-12.78125" y="-8.7890625" width="25.5625" height="15.546875" style="cursor: grabbing; font-family: Arial; user-select: none;"/><text text-anchor="middle" font-size="14" id="v-178" y="0.8em" display="null" xml:space="preserve" transform="translate(0,-7.7734375)" style="cursor: grabbing; font-family: Arial; perspective-origin: 0px 0px; user-select: none;"><tspan dy="0em" x="0" id="v-179" class="v-line" style="cursor: grabbing; font-family: Arial; user-select: none;">and</tspan></text></g></g><g class="marker-vertices" id="v-170" style="cursor: move; font-family: Arial; opacity: 0; user-select: none;"/><g class="marker-arrowheads" id="v-171" style="cursor: grab; font-family: Arial; opacity: 0; user-select: none;"><g class="marker-arrowhead-group marker-arrowhead-group-source" id="v-174" transform="translate(601.9839376438701,262.4611164527943) scale(0.5,0.5) rotate(-112.2490234375)" style="cursor: grab; font-family: Arial; user-select: none;"><path class="marker-arrowhead" end="source" d="M 26 0 L 0 13 L 26 26 z" style="cursor: grab; font-family: Arial; user-select: none; fill: rgb(26, 188, 156);"/></g><g class="marker-arrowhead-group marker-arrowhead-group-target" id="v-175" transform="translate(587.0160623561299,191.53888354720573) scale(0.5,0.5) rotate(67.7509765625)" style="cursor: grab; font-family: Arial; user-select: none;"><path class="marker-arrowhead" end="target" d="M 26 0 L 0 13 L 26 26 z" style="cursor: grab; font-family: Arial; user-select: none; fill: rgb(26, 188, 156);"/></g></g><g class="link-tools" id="v-172" style="cursor: pointer; font-family: Arial; opacity: 0; user-select: none;"><g class="link-tool" id="v-173" transform="translate(600.51611328125, 241.45298767089844) scale(.5)" style="cursor: pointer; font-family: Arial; user-select: none;"><g class="tool-remove" event="remove" style="cursor: pointer; font-family: Arial; user-select: none;"><circle r="11" style="cursor: pointer; font-family: Arial; user-select: none; fill: rgb(255, 0, 0);"/><path transform="scale(.8) translate(-16, -16)" d="M24.778,21.419 19.276,15.917 24.777,10.415 21.949,7.585 16.447,13.087 10.945,7.585 8.117,10.415 13.618,15.917 8.116,21.419 10.946,24.248 16.447,18.746 21.948,24.248z" style="cursor: pointer; font-family: Arial; user-select: none; fill: rgb(255, 255, 255);"/><title style="cursor: pointer; font-family: Arial; user-select: none;">Remove link.</title></g><g class="tool-options" event="link:options" style="cursor: pointer; display: block; font-family: Arial; user-select: none;"><circle r="11" transform="translate(25)" style="cursor: pointer; font-family: Arial; user-select: none;"/><path fill="white" transform="scale(.55) translate(29, -16)" d="M31.229,17.736c0.064-0.571,0.104-1.148,0.104-1.736s-0.04-1.166-0.104-1.737l-4.377-1.557c-0.218-0.716-0.504-1.401-0.851-2.05l1.993-4.192c-0.725-0.91-1.549-1.734-2.458-2.459l-4.193,1.994c-0.647-0.347-1.334-0.632-2.049-0.849l-1.558-4.378C17.165,0.708,16.588,0.667,16,0.667s-1.166,0.041-1.737,0.105L12.707,5.15c-0.716,0.217-1.401,0.502-2.05,0.849L6.464,4.005C5.554,4.73,4.73,5.554,4.005,6.464l1.994,4.192c-0.347,0.648-0.632,1.334-0.849,2.05l-4.378,1.557C0.708,14.834,0.667,15.412,0.667,16s0.041,1.165,0.105,1.736l4.378,1.558c0.217,0.715,0.502,1.401,0.849,2.049l-1.994,4.193c0.725,0.909,1.549,1.733,2.459,2.458l4.192-1.993c0.648,0.347,1.334,0.633,2.05,0.851l1.557,4.377c0.571,0.064,1.148,0.104,1.737,0.104c0.588,0,1.165-0.04,1.736-0.104l1.558-4.377c0.715-0.218,1.399-0.504,2.049-0.851l4.193,1.993c0.909-0.725,1.733-1.549,2.458-2.458l-1.993-4.193c0.347-0.647,0.633-1.334,0.851-2.049L31.229,17.736zM16,20.871c-2.69,0-4.872-2.182-4.872-4.871c0-2.69,2.182-4.872,4.872-4.872c2.689,0,4.871,2.182,4.871,4.872C20.871,18.689,18.689,20.871,16,20.871z" style="cursor: pointer; font-family: Arial; user-select: none;"/><title style="cursor: pointer; font-family: Arial; user-select: none;">Link options.</title></g></g></g></g><g id="j_14" model-id="f08c6860-538e-4114-90e3-af9411b47a46" class="link joint-theme-default" style="cursor: grabbing; font-family: Arial; user-select: none;"><path class="connection" stroke="#000000" d="M 360 260 501 197" id="v-150" stroke-dasharray="0 0" style="cursor: grabbing; font-family: Arial; user-select: none; fill: none; stroke-linejoin: round;"/><path class="marker-source" fill="black" stroke="black" d="M 0 0" id="v-151" transform="translate(360,260) scale(1,1) rotate(-24.068723678588867)" style="cursor: grabbing; font-family: Arial; user-select: none; vector-effect: non-scaling-stroke;"/><path class="marker-target" fill="black" stroke="#000000" d="M 10 0 L 10 10 M 10 5 L 0 5" id="v-152" stroke-width="1" transform="translate(512.0391682091316,197.56527799344838) scale(1,1) rotate(-204.0687255859375)" style="cursor: grabbing; font-family: Arial; user-select: none; vector-effect: non-scaling-stroke;"/><path class="connection-wrap" d="M 360 260 501 197" id="v-153" style="cursor: move; font-family: Arial; opacity: 0; user-select: none; fill: none; stroke: rgb(0, 0, 0); stroke-linecap: round; stroke-linejoin: round; stroke-width: 15px;"/><g class="labels" id="v-154" style="cursor: grabbing; font-family: Arial; user-select: none;"><g class="label" id="v-162" label-idx="0" transform="translate(430.5, 228.5)" style="cursor: grabbing; font-family: Arial; user-select: none;"><rect fill="white" rx="3" ry="3" x="-12.78125" y="-8.7890625" width="25.5625" height="15.546875" style="cursor: grabbing; font-family: Arial; user-select: none;"/><text text-anchor="middle" font-size="14" id="v-163" y="0.8em" display="null" xml:space="preserve" transform="translate(0,-7.7734375)" style="cursor: grabbing; font-family: Arial; perspective-origin: 0px 0px; user-select: none;"><tspan dy="0em" x="0" id="v-164" class="v-line" style="cursor: grabbing; font-family: Arial; user-select: none;">and</tspan></text></g></g><g class="marker-vertices" id="v-155" style="cursor: move; font-family: Arial; opacity: 0; user-select: none;"/><g class="marker-arrowheads" id="v-156" style="cursor: grab; font-family: Arial; opacity: 0; user-select: none;"><g class="marker-arrowhead-group marker-arrowhead-group-source" id="v-159" transform="translate(354.69819339247874,248.13025833485457) scale(1,1) rotate(-24.068723678588867)" style="cursor: grab; font-family: Arial; user-select: none;"><path class="marker-arrowhead" end="source" d="M 26 0 L 0 13 L 26 26 z" style="cursor: grab; font-family: Arial; user-select: none; fill: rgb(26, 188, 156);"/></g><g class="marker-arrowhead-group marker-arrowhead-group-target" id="v-160" transform="translate(515.3018068261642,204.86974109351263) scale(1,1) rotate(-204.0687255859375)" style="cursor: grab; font-family: Arial; user-select: none;"><path class="marker-arrowhead" end="target" d="M 26 0 L 0 13 L 26 26 z" style="cursor: grab; font-family: Arial; user-select: none; fill: rgb(26, 188, 156);"/></g></g><g class="link-tools" id="v-157" style="cursor: pointer; font-family: Arial; opacity: 0; user-select: none;"><g class="link-tool" id="v-158" transform="translate(396.5203552246094, 243.68240356445312) " style="cursor: pointer; font-family: Arial; user-select: none;"><g class="tool-remove" event="remove" style="cursor: pointer; font-family: Arial; user-select: none;"><circle r="11" style="cursor: pointer; font-family: Arial; user-select: none; fill: rgb(255, 0, 0);"/><path transform="scale(.8) translate(-16, -16)" d="M24.778,21.419 19.276,15.917 24.777,10.415 21.949,7.585 16.447,13.087 10.945,7.585 8.117,10.415 13.618,15.917 8.116,21.419 10.946,24.248 16.447,18.746 21.948,24.248z" style="cursor: pointer; font-family: Arial; user-select: none; fill: rgb(255, 255, 255);"/><title style="cursor: pointer; font-family: Arial; user-select: none;">Remove link.</title></g><g class="tool-options" event="link:options" style="cursor: pointer; display: block; font-family: Arial; user-select: none;"><circle r="11" transform="translate(25)" style="cursor: pointer; font-family: Arial; user-select: none;"/><path fill="white" transform="scale(.55) translate(29, -16)" d="M31.229,17.736c0.064-0.571,0.104-1.148,0.104-1.736s-0.04-1.166-0.104-1.737l-4.377-1.557c-0.218-0.716-0.504-1.401-0.851-2.05l1.993-4.192c-0.725-0.91-1.549-1.734-2.458-2.459l-4.193,1.994c-0.647-0.347-1.334-0.632-2.049-0.849l-1.558-4.378C17.165,0.708,16.588,0.667,16,0.667s-1.166,0.041-1.737,0.105L12.707,5.15c-0.716,0.217-1.401,0.502-2.05,0.849L6.464,4.005C5.554,4.73,4.73,5.554,4.005,6.464l1.994,4.192c-0.347,0.648-0.632,1.334-0.849,2.05l-4.378,1.557C0.708,14.834,0.667,15.412,0.667,16s0.041,1.165,0.105,1.736l4.378,1.558c0.217,0.715,0.502,1.401,0.849,2.049l-1.994,4.193c0.725,0.909,1.549,1.733,2.459,2.458l4.192-1.993c0.648,0.347,1.334,0.633,2.05,0.851l1.557,4.377c0.571,0.064,1.148,0.104,1.737,0.104c0.588,0,1.165-0.04,1.736-0.104l1.558-4.377c0.715-0.218,1.399-0.504,2.049-0.851l4.193,1.993c0.909-0.725,1.733-1.549,2.458-2.458l-1.993-4.193c0.347-0.647,0.633-1.334,0.851-2.049L31.229,17.736zM16,20.871c-2.69,0-4.872-2.182-4.872-4.871c0-2.69,2.182-4.872,4.872-4.872c2.689,0,4.871,2.182,4.871,4.872C20.871,18.689,18.689,20.871,16,20.871z" style="cursor: pointer; font-family: Arial; user-select: none;"/><title style="cursor: pointer; font-family: Arial; user-select: none;">Link options.</title></g></g></g></g><g id="j_11" model-id="2a2b4681-d24a-4f3c-a269-9ff7ea99a2ff" class="element basic Task joint-theme-default" transform="translate(410,260)" style="cursor: move; font-family: Arial; user-select: none;"><g class="rotatable" id="v-111" transform="rotate(0,60,25)" style="cursor: move; font-family: Arial; user-select: none; vector-effect: non-scaling-stroke;"><g class="scalable" id="v-112" transform="scale(1.2,0.8333333333333334)" style="cursor: move; font-family: Arial; user-select: none; vector-effect: non-scaling-stroke;"><path class="outer" id="v-113" d="M 0 30 L 20 0 L 80 0 L 100 30 L 80 60 L 20 60 z" fill="#92E3B1" stroke="black" stroke-width="1" width="100" height="60" stroke-dasharray="" style="cursor: move; font-family: Arial; user-select: none; vector-effect: non-scaling-stroke;"/></g><path class="satvalue" id="v-114" stroke="#FFFF00" stroke-width="4" value="none" transform="translate(90,37.5)" style="cursor: move; font-family: Arial; user-select: none; vector-effect: non-scaling-stroke;"/><text class="funcvalue" id="v-115" y="0.8em" display="null" xml:space="preserve" fill="black" font-size="16" transform="translate(24,37.5)" style="cursor: move; font-family: Arial; perspective-origin: 2.46528px 0px; user-select: none; vector-effect: non-scaling-stroke;"><tspan dy="0em" x="0" id="v-1271" class="v-line" style="cursor: move; font-family: Arial; user-select: none; vector-effect: non-scaling-stroke;"> </tspan></text><text class="name" id="v-117" y="0.8em" display="null" xml:space="preserve" fill="black" font-size="10" transform="translate(16.3671875,14.4453125)" style="cursor: move; font-family: Arial; perspective-origin: 47.2396px 0px; user-select: none; vector-effect: non-scaling-stroke;"><tspan dy="0em" x="0" id="v-1272" class="v-line" style="cursor: move; font-family: Arial; user-select: none; vector-effect: non-scaling-stroke;">Analisar sugestoes</tspan><tspan dy="1em" x="0" id="v-1273" class="v-line" style="cursor: move; font-family: Arial; user-select: none; vector-effect: non-scaling-stroke;"> do usuario</tspan></text></g></g><g id="j_13" model-id="30c0aee0-3833-491a-8ffe-29b624fb2d2d" class="link joint-theme-default" style="cursor: grabbing; font-family: Arial; user-select: none;"><path class="connection" stroke="#000000" d="M 492 260 542 202" id="v-135" stroke-dasharray="0 0" style="cursor: grabbing; font-family: Arial; user-select: none; fill: none; stroke-linejoin: round;"/><path class="marker-source" fill="black" stroke="black" d="M 0 0" id="v-136" transform="translate(492,260) scale(1,1) rotate(-49.68590164184571)" style="cursor: grabbing; font-family: Arial; user-select: none; vector-effect: non-scaling-stroke;"/><path class="marker-target" fill="black" stroke="#000000" d="M 10 0 L 10 10 M 10 5 L 0 5" id="v-137" stroke-width="1" transform="translate(551.812569656878,197.2348875880001) scale(1,1) rotate(-229.68589782714844)" style="cursor: grabbing; font-family: Arial; user-select: none; vector-effect: non-scaling-stroke;"/><path class="connection-wrap" d="M 492 260 542 202" id="v-138" style="cursor: move; font-family: Arial; opacity: 0; user-select: none; fill: none; stroke: rgb(0, 0, 0); stroke-linecap: round; stroke-linejoin: round; stroke-width: 15px;"/><g class="labels" id="v-139" style="cursor: grabbing; font-family: Arial; user-select: none;"><g class="label" id="v-147" label-idx="0" transform="translate(517, 231)" style="cursor: grabbing; font-family: Arial; user-select: none;"><rect fill="white" rx="3" ry="3" x="-12.78125" y="-8.7890625" width="25.5625" height="15.546875" style="cursor: grabbing; font-family: Arial; user-select: none;"/><text text-anchor="middle" font-size="14" id="v-148" y="0.8em" display="null" xml:space="preserve" transform="translate(0,-7.7734375)" style="cursor: grabbing; font-family: Arial; perspective-origin: 0px 0px; user-select: none;"><tspan dy="0em" x="0" id="v-149" class="v-line" style="cursor: grabbing; font-family: Arial; user-select: none;">and</tspan></text></g></g><g class="marker-vertices" id="v-140" style="cursor: move; font-family: Arial; opacity: 0; user-select: none;"/><g class="marker-arrowheads" id="v-141" style="cursor: grab; font-family: Arial; opacity: 0; user-select: none;"><g class="marker-arrowhead-group marker-arrowhead-group-source" id="v-144" transform="translate(487.04369001363455,255.79464216793772) scale(0.5,0.5) rotate(-49.68590164184571)" style="cursor: grab; font-family: Arial; user-select: none;"><path class="marker-arrowhead" end="source" d="M 26 0 L 0 13 L 26 26 z" style="cursor: grab; font-family: Arial; user-select: none; fill: rgb(26, 188, 156);"/></g><g class="marker-arrowhead-group marker-arrowhead-group-target" id="v-145" transform="translate(552.9562795187852,198.20535844203687) scale(0.5,0.5) rotate(-229.68589782714844)" style="cursor: grab; font-family: Arial; user-select: none;"><path class="marker-arrowhead" end="target" d="M 26 0 L 0 13 L 26 26 z" style="cursor: grab; font-family: Arial; user-select: none; fill: rgb(26, 188, 156);"/></g></g><g class="link-tools" id="v-142" style="cursor: pointer; font-family: Arial; opacity: 0; user-select: none;"><g class="link-tool" id="v-143" transform="translate(505.05877685546875, 244.851806640625) scale(.5)" style="cursor: pointer; font-family: Arial; user-select: none;"><g class="tool-remove" event="remove" style="cursor: pointer; font-family: Arial; user-select: none;"><circle r="11" style="cursor: pointer; font-family: Arial; user-select: none; fill: rgb(255, 0, 0);"/><path transform="scale(.8) translate(-16, -16)" d="M24.778,21.419 19.276,15.917 24.777,10.415 21.949,7.585 16.447,13.087 10.945,7.585 8.117,10.415 13.618,15.917 8.116,21.419 10.946,24.248 16.447,18.746 21.948,24.248z" style="cursor: pointer; font-family: Arial; user-select: none; fill: rgb(255, 255, 255);"/><title style="cursor: pointer; font-family: Arial; user-select: none;">Remove link.</title></g><g class="tool-options" event="link:options" style="cursor: pointer; display: block; font-family: Arial; user-select: none;"><circle r="11" transform="translate(25)" style="cursor: pointer; font-family: Arial; user-select: none;"/><path fill="white" transform="scale(.55) translate(29, -16)" d="M31.229,17.736c0.064-0.571,0.104-1.148,0.104-1.736s-0.04-1.166-0.104-1.737l-4.377-1.557c-0.218-0.716-0.504-1.401-0.851-2.05l1.993-4.192c-0.725-0.91-1.549-1.734-2.458-2.459l-4.193,1.994c-0.647-0.347-1.334-0.632-2.049-0.849l-1.558-4.378C17.165,0.708,16.588,0.667,16,0.667s-1.166,0.041-1.737,0.105L12.707,5.15c-0.716,0.217-1.401,0.502-2.05,0.849L6.464,4.005C5.554,4.73,4.73,5.554,4.005,6.464l1.994,4.192c-0.347,0.648-0.632,1.334-0.849,2.05l-4.378,1.557C0.708,14.834,0.667,15.412,0.667,16s0.041,1.165,0.105,1.736l4.378,1.558c0.217,0.715,0.502,1.401,0.849,2.049l-1.994,4.193c0.725,0.909,1.549,1.733,2.459,2.458l4.192-1.993c0.648,0.347,1.334,0.633,2.05,0.851l1.557,4.377c0.571,0.064,1.148,0.104,1.737,0.104c0.588,0,1.165-0.04,1.736-0.104l1.558-4.377c0.715-0.218,1.399-0.504,2.049-0.851l4.193,1.993c0.909-0.725,1.733-1.549,2.458-2.458l-1.993-4.193c0.347-0.647,0.633-1.334,0.851-2.049L31.229,17.736zM16,20.871c-2.69,0-4.872-2.182-4.872-4.871c0-2.69,2.182-4.872,4.872-4.872c2.689,0,4.871,2.182,4.871,4.872C20.871,18.689,18.689,20.871,16,20.871z" style="cursor: pointer; font-family: Arial; user-select: none;"/><title style="cursor: pointer; font-family: Arial; user-select: none;">Link options.</title></g></g></g></g><g id="j_12" model-id="f280ab2c-4995-467a-962c-f0f27c508f11" class="element basic Task joint-theme-default" transform="translate(700,260)" style="cursor: move; font-family: Arial; user-select: none;"><g class="rotatable" id="v-123" transform="rotate(0,50,30)" style="cursor: move; font-family: Arial; user-select: none; vector-effect: non-scaling-stroke;"><g class="scalable" id="v-124" transform="scale(1,1)" style="cursor: move; font-family: Arial; user-select: none; vector-effect: non-scaling-stroke;"><path class="outer" id="v-125" d="M 0 30 L 20 0 L 80 0 L 100 30 L 80 60 L 20 60 z" fill="#92E3B1" stroke="black" stroke-width="1" width="100" height="60" stroke-dasharray="" style="cursor: move; font-family: Arial; user-select: none; vector-effect: non-scaling-stroke;"/></g><path class="satvalue" id="v-126" stroke="#FFFF00" stroke-width="4" value="none" transform="translate(75,45)" style="cursor: move; font-family: Arial; user-select: none; vector-effect: non-scaling-stroke;"/><text class="funcvalue" id="v-127" y="0.8em" display="null" xml:space="preserve" fill="black" font-size="16" transform="translate(20,45)" style="cursor: move; font-family: Arial; perspective-origin: 2.46528px 0px; user-select: none; vector-effect: non-scaling-stroke;"><tspan dy="0em" x="0" id="v-1277" class="v-line" style="cursor: move; font-family: Arial; user-select: none; vector-effect: non-scaling-stroke;"> </tspan></text><text class="name" id="v-129" y="0.8em" display="null" xml:space="preserve" fill="black" font-size="10" transform="translate(7.4765625,19.4453125)" style="cursor: move; font-family: Arial; perspective-origin: 46.0069px 0px; user-select: none; vector-effect: non-scaling-stroke;"><tspan dy="0em" x="0" id="v-1278" class="v-line" style="cursor: move; font-family: Arial; user-select: none; vector-effect: non-scaling-stroke;">Ter um algoritimo</tspan><tspan dy="1em" x="0" id="v-1279" class="v-line" style="cursor: move; font-family: Arial; user-select: none; vector-effect: non-scaling-stroke;"> de recomendacao</tspan></text></g></g><g id="j_16" model-id="dfb4c426-b3ea-40d9-bed0-eae2c45cc9da" class="link joint-theme-default" style="pointer-events: visiblePainted; cursor: grabbing; font-family: Arial; user-select: none;"><path class="connection" stroke="#000000" d="M 706 260 617 200" id="v-237" stroke-dasharray="0 0" style="cursor: grabbing; font-family: Arial; user-select: none; fill: none; stroke-linejoin: round;"/><path class="marker-source" fill="black" stroke="black" d="M 0 0" id="v-238" transform="translate(706,260) scale(1,1) rotate(-145.7681427001953)" style="cursor: grabbing; font-family: Arial; user-select: none; vector-effect: non-scaling-stroke;"/><path class="marker-target" fill="black" stroke="#000000" d="M 10 0 L 10 10 M 10 5 L 0 5" id="v-239" transform="translate(611.8127244485701,189.8661585761674) scale(1,1) rotate(34.23184204101564)" stroke-width="1" style="cursor: grabbing; font-family: Arial; user-select: none; vector-effect: non-scaling-stroke;"/><path class="connection-wrap" d="M 706 260 617 200" id="v-240" style="cursor: move; font-family: Arial; opacity: 0; user-select: none; fill: none; stroke: rgb(0, 0, 0); stroke-linecap: round; stroke-linejoin: round; stroke-width: 15px;"/><g class="labels" id="v-241" style="cursor: grabbing; font-family: Arial; user-select: none;"><g class="label" id="v-257" label-idx="0" transform="translate(661.5, 230)" style="cursor: grabbing; font-family: Arial; user-select: none;"><rect fill="white" rx="3" ry="3" x="-12.78125" y="-8.7890625" width="25.5625" height="15.546875" style="cursor: grabbing; font-family: Arial; user-select: none;"/><text text-anchor="middle" font-size="14" id="v-258" y="0.8em" display="null" xml:space="preserve" transform="translate(0,-7.7734375)" style="cursor: grabbing; font-family: Arial; perspective-origin: 0px 0px; user-select: none;"><tspan dy="0em" x="0" id="v-259" class="v-line" style="cursor: grabbing; font-family: Arial; user-select: none;">and</tspan></text></g></g><g class="marker-vertices" id="v-242" style="cursor: move; font-family: Arial; opacity: 0; user-select: none;"/><g class="marker-arrowheads" id="v-243" style="cursor: grab; font-family: Arial; opacity: 0; user-select: none;"><g class="marker-arrowhead-group marker-arrowhead-group-source" id="v-246" transform="translate(698.6869360378333,270.74797946146697) scale(1,1) rotate(-145.7681427001953)" style="cursor: grab; font-family: Arial; user-select: none;"><path class="marker-arrowhead" end="source" d="M 26 0 L 0 13 L 26 26 z" style="cursor: grab; font-family: Arial; user-select: none; fill: rgb(26, 188, 156);"/></g><g class="marker-arrowhead-group marker-arrowhead-group-target" id="v-247" transform="translate(616.3130591522198,183.25202145330869) scale(1,1) rotate(34.23184204101564)" style="cursor: grab; font-family: Arial; user-select: none;"><path class="marker-arrowhead" end="target" d="M 26 0 L 0 13 L 26 26 z" style="cursor: grab; font-family: Arial; user-select: none; fill: rgb(26, 188, 156);"/></g></g><g class="link-tools" id="v-244" style="cursor: pointer; font-family: Arial; opacity: 0; user-select: none;"><g class="link-tool" id="v-245" transform="translate(672.8331298828125, 237.64028930664062) " style="cursor: pointer; font-family: Arial; user-select: none;"><g class="tool-remove" event="remove" style="cursor: pointer; font-family: Arial; user-select: none;"><circle r="11" style="cursor: pointer; font-family: Arial; user-select: none; fill: rgb(255, 0, 0);"/><path transform="scale(.8) translate(-16, -16)" d="M24.778,21.419 19.276,15.917 24.777,10.415 21.949,7.585 16.447,13.087 10.945,7.585 8.117,10.415 13.618,15.917 8.116,21.419 10.946,24.248 16.447,18.746 21.948,24.248z" style="cursor: pointer; font-family: Arial; user-select: none; fill: rgb(255, 255, 255);"/><title style="cursor: pointer; font-family: Arial; user-select: none;">Remove link.</title></g><g class="tool-options" event="link:options" style="cursor: pointer; display: block; font-family: Arial; user-select: none;"><circle r="11" transform="translate(25)" style="cursor: pointer; font-family: Arial; user-select: none;"/><path fill="white" transform="scale(.55) translate(29, -16)" d="M31.229,17.736c0.064-0.571,0.104-1.148,0.104-1.736s-0.04-1.166-0.104-1.737l-4.377-1.557c-0.218-0.716-0.504-1.401-0.851-2.05l1.993-4.192c-0.725-0.91-1.549-1.734-2.458-2.459l-4.193,1.994c-0.647-0.347-1.334-0.632-2.049-0.849l-1.558-4.378C17.165,0.708,16.588,0.667,16,0.667s-1.166,0.041-1.737,0.105L12.707,5.15c-0.716,0.217-1.401,0.502-2.05,0.849L6.464,4.005C5.554,4.73,4.73,5.554,4.005,6.464l1.994,4.192c-0.347,0.648-0.632,1.334-0.849,2.05l-4.378,1.557C0.708,14.834,0.667,15.412,0.667,16s0.041,1.165,0.105,1.736l4.378,1.558c0.217,0.715,0.502,1.401,0.849,2.049l-1.994,4.193c0.725,0.909,1.549,1.733,2.459,2.458l4.192-1.993c0.648,0.347,1.334,0.633,2.05,0.851l1.557,4.377c0.571,0.064,1.148,0.104,1.737,0.104c0.588,0,1.165-0.04,1.736-0.104l1.558-4.377c0.715-0.218,1.399-0.504,2.049-0.851l4.193,1.993c0.909-0.725,1.733-1.549,2.458-2.458l-1.993-4.193c0.347-0.647,0.633-1.334,0.851-2.049L31.229,17.736zM16,20.871c-2.69,0-4.872-2.182-4.872-4.871c0-2.69,2.182-4.872,4.872-4.872c2.689,0,4.871,2.182,4.871,4.872C20.871,18.689,18.689,20.871,16,20.871z" style="cursor: pointer; font-family: Arial; user-select: none;"/><title style="cursor: pointer; font-family: Arial; user-select: none;">Link options.</title></g></g></g></g><g id="j_18" model-id="a9c22472-749f-47b2-b76b-f7e243c57299" class="element basic Quality joint-theme-default" transform="translate(850,260)" style="cursor: move; font-family: Arial; user-select: none;"><g class="rotatable" id="v-271" transform="rotate(0,50,25)" style="cursor: move; font-family: Arial; user-select: none; vector-effect: non-scaling-stroke;"><g class="scalable" id="v-272" transform="scale(1,1.0810810810810811)" style="cursor: move; font-family: Arial; user-select: none; vector-effect: non-scaling-stroke;"><path class="outer" id="v-273" d="M 0 20 Q 5 0 45 5 Q 55 10 65 5 Q 95 0 100 15 L 100 30 Q 100 50 80 50 L 75, 50 Q 66 50 55 47 Q 45 45 35 47 Q 25 50 15 50 L 10 50 Q 0 45 0 25 z" stroke="black" fill="#FF984F" width="100" height="60" stroke-width="1" stroke-dasharray="" style="cursor: move; font-family: Arial; user-select: none; vector-effect: non-scaling-stroke;"/></g><path class="satvalue" id="v-274" stroke="#FFFF00" stroke-width="4" value="none" transform="translate(75,35)" style="cursor: move; font-family: Arial; user-select: none; vector-effect: non-scaling-stroke;"/><text class="funcvalue" id="v-275" y="0.8em" display="null" xml:space="preserve" fill="black" font-size="16" transform="translate(20,37.5)" style="cursor: move; font-family: Arial; perspective-origin: 2.46528px 0px; user-select: none; vector-effect: non-scaling-stroke;"><tspan dy="0em" x="0" id="v-1283" class="v-line" style="cursor: move; font-family: Arial; user-select: none; vector-effect: non-scaling-stroke;"> </tspan></text><text class="name" id="v-277" y="0.8em" display="null" xml:space="preserve" fill="black" font-size="10" transform="translate(20.265625,14.4453125)" style="cursor: move; font-family: Arial; perspective-origin: 31.8056px 0px; user-select: none; vector-effect: non-scaling-stroke;"><tspan dy="0em" x="0" id="v-1284" class="v-line" style="cursor: move; font-family: Arial; user-select: none; vector-effect: non-scaling-stroke;">Mostrar os</tspan><tspan dy="1em" x="0" id="v-1285" class="v-line" style="cursor: move; font-family: Arial; user-select: none; vector-effect: non-scaling-stroke;">lancamentos</tspan></text></g></g><g id="j_20" model-id="9340c4a5-42e3-409b-ab72-9f8f8f7a56a2" class="link joint-theme-default" style="pointer-events: visiblePainted; cursor: grabbing; font-family: Arial; user-select: none;"><path class="connection" stroke="#000000" d="M 630 189 841 268" id="v-660" stroke-dasharray="0 0" style="cursor: grabbing; font-family: Arial; user-select: none; fill: none; stroke-linejoin: round;"/><path class="marker-source" fill="black" stroke="black" d="M 0 0" id="v-661" transform="translate(630,189) scale(1,1) rotate(20.44180297851564)" style="cursor: grabbing; font-family: Arial; user-select: none; vector-effect: non-scaling-stroke;"/><path class="marker-target" fill="transparent" stroke="#000000" d="M 12 -3 L 5 5 L 12 13 M 5 5 L 30 5" id="v-662" transform="translate(852.9388713201782,277.43142138500934) scale(1,1) rotate(-159.55819702148438)" style="cursor: grabbing; font-family: Arial; user-select: none; vector-effect: non-scaling-stroke;"/><path class="connection-wrap" d="M 630 189 841 268" id="v-663" style="cursor: move; font-family: Arial; opacity: 0; user-select: none; fill: none; stroke: rgb(0, 0, 0); stroke-linecap: round; stroke-linejoin: round; stroke-width: 15px;"/><g class="labels" id="v-664" style="cursor: grabbing; font-family: Arial; user-select: none;"><g class="label" id="v-754" label-idx="0" transform="translate(735.5, 228.5)" style="cursor: grabbing; font-family: Arial; user-select: none;"><rect fill="white" rx="3" ry="3" x="-17.828125" y="-8.7890625" width="35.34375" height="15.546875" style="cursor: grabbing; font-family: Arial; user-select: none;"/><text text-anchor="middle" font-size="14" id="v-755" y="0.8em" display="null" xml:space="preserve" transform="translate(0,-7.7734375)" style="cursor: grabbing; font-family: Arial; perspective-origin: -0.173611px 0px; user-select: none;"><tspan dy="0em" x="0" id="v-756" class="v-line" style="cursor: grabbing; font-family: Arial; user-select: none;">helps</tspan></text></g></g><g class="marker-vertices" id="v-665" style="cursor: move; font-family: Arial; opacity: 0; user-select: none;"/><g class="marker-arrowheads" id="v-666" style="cursor: grab; font-family: Arial; opacity: 0; user-select: none;"><g class="marker-arrowhead-group marker-arrowhead-group-source" id="v-669" transform="translate(634.5403042987788,176.81864715743836) scale(1,1) rotate(20.44180297851564)" style="cursor: grab; font-family: Arial; user-select: none;"><path class="marker-arrowhead" end="source" d="M 26 0 L 0 13 L 26 26 z" style="cursor: grab; font-family: Arial; user-select: none; fill: rgb(26, 188, 156);"/></g><g class="marker-arrowhead-group marker-arrowhead-group-target" id="v-670" transform="translate(845.4596957012212,283.1813681013507) scale(1,1) rotate(-159.55819702148438)" style="cursor: grab; font-family: Arial; user-select: none;"><path class="marker-arrowhead" end="target" d="M 26 0 L 0 13 L 26 26 z" style="cursor: grab; font-family: Arial; user-select: none; fill: rgb(26, 188, 156);"/></g></g><g class="link-tools" id="v-667" style="cursor: pointer; font-family: Arial; opacity: 0; user-select: none;"><g class="link-tool" id="v-668" transform="translate(667.46044921875, 203.02548217773438) " style="cursor: pointer; font-family: Arial; user-select: none;"><g class="tool-remove" event="remove" style="cursor: pointer; font-family: Arial; user-select: none;"><circle r="11" style="cursor: pointer; font-family: Arial; user-select: none; fill: rgb(255, 0, 0);"/><path transform="scale(.8) translate(-16, -16)" d="M24.778,21.419 19.276,15.917 24.777,10.415 21.949,7.585 16.447,13.087 10.945,7.585 8.117,10.415 13.618,15.917 8.116,21.419 10.946,24.248 16.447,18.746 21.948,24.248z" style="cursor: pointer; font-family: Arial; user-select: none; fill: rgb(255, 255, 255);"/><title style="cursor: pointer; font-family: Arial; user-select: none;">Remove link.</title></g><g class="tool-options" event="link:options" style="cursor: pointer; display: block; font-family: Arial; user-select: none;"><circle r="11" transform="translate(25)" style="cursor: pointer; font-family: Arial; user-select: none;"/><path fill="white" transform="scale(.55) translate(29, -16)" d="M31.229,17.736c0.064-0.571,0.104-1.148,0.104-1.736s-0.04-1.166-0.104-1.737l-4.377-1.557c-0.218-0.716-0.504-1.401-0.851-2.05l1.993-4.192c-0.725-0.91-1.549-1.734-2.458-2.459l-4.193,1.994c-0.647-0.347-1.334-0.632-2.049-0.849l-1.558-4.378C17.165,0.708,16.588,0.667,16,0.667s-1.166,0.041-1.737,0.105L12.707,5.15c-0.716,0.217-1.401,0.502-2.05,0.849L6.464,4.005C5.554,4.73,4.73,5.554,4.005,6.464l1.994,4.192c-0.347,0.648-0.632,1.334-0.849,2.05l-4.378,1.557C0.708,14.834,0.667,15.412,0.667,16s0.041,1.165,0.105,1.736l4.378,1.558c0.217,0.715,0.502,1.401,0.849,2.049l-1.994,4.193c0.725,0.909,1.549,1.733,2.459,2.458l4.192-1.993c0.648,0.347,1.334,0.633,2.05,0.851l1.557,4.377c0.571,0.064,1.148,0.104,1.737,0.104c0.588,0,1.165-0.04,1.736-0.104l1.558-4.377c0.715-0.218,1.399-0.504,2.049-0.851l4.193,1.993c0.909-0.725,1.733-1.549,2.458-2.458l-1.993-4.193c0.347-0.647,0.633-1.334,0.851-2.049L31.229,17.736zM16,20.871c-2.69,0-4.872-2.182-4.872-4.871c0-2.69,2.182-4.872,4.872-4.872c2.689,0,4.871,2.182,4.871,4.872C20.871,18.689,18.689,20.871,16,20.871z" style="cursor: pointer; font-family: Arial; user-select: none;"/><title style="cursor: pointer; font-family: Arial; user-select: none;">Link options.</title></g></g></g></g></g><defs id="v-4" style="cursor: grabbing; font-family: Arial; user-select: none;"/></svg>